<svg version="1.1" id="icons" xmlns="http://www.w3.org/2000/svg" xmlns:xlink="http://www.w3.org/1999/xlink" x="0px" y="0px" viewBox="0 0 66.9000015258789 66.9000015258789" style="enable-background:new 0 0 66.9 66.9;" xml:space="preserve" width="100%" height="100%" ><rect id="svgEditorBackground" x="0" y="0" width="66.9" height="66.9" style="fill: none; stroke: none;"/>
<style type="text/css">
	.st0{fill:#FFFFFF;}
	.st1{fill:#333333;}
	.st2{fill:#009DB9;}
	.st3{fill:#92A5A8;}
</style>
<g transform="matrix(0.693313, -0.720637, 0.720637, 0.693313, -13.8673, 34.4154)">
	<path class="st0" d="M40.2,20.7c-0.8-0.8-2-0.8-2.8,0c-0.8,0.8-0.8,2,0,2.8l8,8H16.6c-1.1,0-2,0.9-2,2s0.9,2,2,2h28.6l-7.8,7.8   c-0.8,0.8-0.8,2,0,2.8c0.4,0.4,0.9,0.6,1.4,0.6c0.5,0,1-0.2,1.4-0.6l11.3-11.3c0.4-0.4,0.6-0.9,0.6-1.4s-0.2-1-0.6-1.4L40.2,20.7z"/>
	<path class="st0" d="M33.5,0C15,0,0,15,0,33.5c0,18.4,15,33.5,33.5,33.5c18.4,0,33.5-15,33.5-33.5C66.9,15,51.9,0,33.5,0z    M33.5,62.9C17.2,62.9,4,49.7,4,33.5C4,17.2,17.2,4,33.5,4s29.5,13.2,29.5,29.5C62.9,49.7,49.7,62.9,33.5,62.9z"/>
</g>
</svg>