<svg version="1.1" id="icons" xmlns="http://www.w3.org/2000/svg" xmlns:xlink="http://www.w3.org/1999/xlink" x="0px" y="0px" viewBox="0 0 66.9000015258789 66.9000015258789" style="enable-background:new 0 0 66.9 66.9;" xml:space="preserve" width="100%" height="100%" ><rect id="svgEditorBackground" x="0" y="0" width="66.9" height="66.9" style="fill: none; stroke: none;"/>
<style type="text/css">
	.st0{fill:#FFFFFF;}
	.st1{fill:#333333;}
	.st2{fill:#009DB9;}
	.st3{fill:#92A5A8;}
</style>
<g transform="matrix(-0.646165, 0.747385, -0.747385, -0.646165, 80.8303, 29.4628)">
	<path class="st0" d="M40.20000076293945,20.700000762939453c-0.7999992370605469,-0.7999992370605469,-2,-0.7999992370605469,-2.799999237060547,0c-0.7999992370605469,0.7999992370605469,-0.7999992370605469,2,0,2.799999237060547l8,8h-28.80000114440918c-1.1000003814697266,0,-2,0.9000015258789062,-2,2s0.8999996185302734,2,2,2h28.600000381469727l-7.799999237060547,7.799999237060547c-0.7999992370605469,0.7999992370605469,-0.7999992370605469,2,0,2.799999237060547c0.40000152587890625,0.40000152587890625,0.9000015258789062,0.5999984741210938,1.4000015258789062,0.5999984741210938c0.5,0,1,-0.20000076293945312,1.4000015258789062,-0.5999984741210938l11.299999237060547,-11.299999237060547c0.40000152587890625,-0.40000152587890625,0.5999984741210938,-0.9000015258789062,0.5999984741210938,-1.4000015258789062s-0.20000076293945312,-1,-0.5999984741210938,-1.3999996185302734l-11.300003051757812,-11.299997329711914Z"/>
	<path class="st0" d="M33.5,0C15,0,0,15,0,33.5c0,18.4,15,33.5,33.5,33.5c18.4,0,33.5-15,33.5-33.5C66.9,15,51.9,0,33.5,0z    M33.5,62.9C17.2,62.9,4,49.7,4,33.5C4,17.2,17.2,4,33.5,4s29.5,13.2,29.5,29.5C62.9,49.7,49.7,62.9,33.5,62.9z"/>
</g>
</svg>