<?xml version="1.0" encoding="utf-8"?>
<!-- Generator: Adobe Illustrator 19.0.1, SVG Export Plug-In . SVG Version: 6.00 Build 0)  -->
<svg version="1.1" id="Слой_1" xmlns="http://www.w3.org/2000/svg" xmlns:xlink="http://www.w3.org/1999/xlink" x="0px" y="0px"
	 viewBox="0 0 114.8 40" style="enable-background:new 0 0 114.8 40;" xml:space="preserve">
<style type="text/css">
	.st0{opacity:0.7;clip-path:url(#SVGID_4_);}
	.st1{fill:#DADADB;}
	.st2{fill:#D4D6D8;}
	.st3{fill:#DDDDDD;}
	.st4{fill:#E2E2E3;}
	.st5{fill:#DFDFDF;}
	.st6{fill:#DADBDB;}
	.st7{fill:#D7D7D7;}
	.st8{fill:#CDCCD5;}
	.st9{fill:#DDDDDE;}
	.st10{fill:#D5D8D8;}
	.st11{fill:#D9D9DA;}
	.st12{fill:#D5D5D9;}
	.st13{fill:#D0CFD8;}
	.st14{fill:#DFDFE0;}
	.st15{fill:#D4D4D7;}
	.st16{fill:#D7D8D9;}
	.st17{fill:#D6D5DA;}
	.st18{fill:#D8DBDA;}
	.st19{fill:#D5D5D5;}
	.st20{fill:#D9D9D9;}
	.st21{fill:#D1D0D7;}
	.st22{fill:#DCDBE0;}
	.st23{fill:#E0E1E4;}
	.st24{fill:#D2D8DB;}
	.st25{fill:#D6D6D8;}
	.st26{fill:#D4D4D4;}
	.st27{fill:#DADADA;}
	.st28{fill:#DBDCDD;}
	.st29{fill:#DBDBDB;}
	.st30{fill:#D8D9D9;}
	.st31{fill:#D8D8D8;}
	.st32{fill:#D5D9DA;}
	.st33{fill:#D7DAD9;}
	.st34{fill:#D9DAD8;}
	.st35{fill:#D6D6D6;}
	.st36{fill:#D6D7D7;}
	.st37{fill:#D8D8D9;}
	.st38{fill:#DCDCDC;}
	.st39{fill:#DBDBDC;}
	.st40{fill:#D3D3D8;}
	.st41{fill:#D4D8D9;}
	.st42{fill:#D3D2D6;}
	.st43{fill:#D4D4D5;}
	.st44{fill:#D2D1D8;}
	.st45{fill:#DEDEDE;}
	.st46{fill:#DDDCDF;}
	.st47{fill:#D6D5D6;}
	.st48{fill:#D9DADA;}
	.st49{fill:#DDDDE0;}
	.st50{fill:#E0E0E0;}
	.st51{fill:#D5D5D6;}
	.st52{fill:#DDDDDF;}
	.st53{fill:#DFDFE1;}
	.st54{fill:#E1E1E1;}
	.st55{fill:#DDDCDE;}
	.st56{fill:#D6D6D5;}
	.st57{fill:#D1D2DE;}
	.st58{fill:#D0D0D9;}
	.st59{fill:#DBDADD;}
	.st60{fill:#D5D4D6;}
	.st61{fill:#D1CFD3;}
	.st62{fill:#D6D6D7;}
	.st63{fill:#D5D4D9;}
	.st64{fill:#D5D5D8;}
	.st65{fill:#D9D9D7;}
	.st66{fill:#D6DBDA;}
	.st67{fill:#D5D4D7;}
	.st68{fill:#D2D3DE;}
	.st69{fill:#D5D2D6;}
	.st70{fill:#DEDEDF;}
	.st71{fill:#D8D9DA;}
	.st72{fill:#D1D1D6;}
	.st73{fill:#D5D5D7;}
	.st74{fill:#D9D8D9;}
	.st75{fill:#D5D9DB;}
	.st76{fill:#E1E1E2;}
	.st77{fill:#DCDCDF;}
	.st78{fill:#DEDEDC;}
	.st79{fill:#D5D7D8;}
	.st80{fill:#D2D2DB;}
	.st81{fill:#D0CED8;}
	.st82{fill:#CDCFDC;}
	.st83{fill:#DEDEE0;}
	.st84{fill:#D7D6D9;}
	.st85{fill:#D0DBDC;}
	.st86{fill:#CBD8D3;}
	.st87{fill:#DDDEDD;}
	.st88{fill:#D7DFE1;}
	.st89{fill:#D8D8D7;}
	.st90{fill:#D2D2DD;}
	.st91{fill:#D7D7DA;}
	.st92{fill:#D7D7D6;}
	.st93{fill:#D3D2D4;}
	.st94{fill:#D7D7D8;}
	.st95{fill:#DEDFDF;}
	.st96{fill:#E0E0E2;}
	.st97{fill:#D8D8DA;}
	.st98{fill:#E0DFE2;}
	.st99{fill:#D4D3D7;}
	.st100{fill:#DBDCDC;}
	.st101{fill:#D2D2D9;}
	.st102{fill:#D2D1D5;}
	.st103{fill:#D4D3D9;}
	.st104{fill:#CFE0E1;}
	.st105{fill:#E2E1E5;}
	.st106{fill:#D7D6DA;}
	.st107{fill:#D8D9D5;}
	.st108{fill:#CCDCD5;}
	.st109{fill:#DCDCDE;}
	.st110{fill:#D8E2E3;}
	.st111{fill:#DEDFDE;}
	.st112{fill:#D4D2DA;}
	.st113{fill:#D3D3D7;}
	.st114{fill:#DDDFDF;}
	.st115{fill:#D5D5DC;}
	.st116{fill:#D5D9D8;}
	.st117{fill:#D3D2D9;}
	.st118{fill:#D5D4DA;}
	.st119{fill:#DCDBE2;}
	.st120{fill:#C8DBD1;}
	.st121{fill:#D9DAD9;}
	.st122{fill:#D8DADA;}
	.st123{fill:#D3DDDD;}
	.st124{fill:#D7D8DA;}
	.st125{fill:#D9DBDA;}
	.st126{fill:#DDDEDE;}
	.st127{fill:#CED9DD;}
	.st128{fill:#D8DBDB;}
	.st129{fill:#D7D6D8;}
	.st130{fill:#D7D7E5;}
	.st131{fill:#DFE0E0;}
	.st132{fill:#DBDDDC;}
	.st133{fill:#D7D9D9;}
	.st134{fill:#DFE0E2;}
	.st135{fill:#CFD1DC;}
	.st136{fill:#D1D2DB;}
	.st137{fill:#E0E1E0;}
	.st138{fill:#CFCED5;}
	.st139{fill:#C7D7D1;}
	.st140{fill:#DBDEDD;}
	.st141{fill:#DEE1E0;}
	.st142{fill:#DCDEDD;}
	.st143{fill:#D7D8D5;}
	.st144{fill:#D2D0DB;}
	.st145{fill:#E1E0E1;}
	.st146{fill:#E2E2E2;}
	.st147{fill:#D1CFD9;}
	.st148{fill:#D8D9D8;}
	.st149{fill:#CFD7D2;}
	.st150{fill:#D8D9E1;}
	.st151{fill:#D9D9D8;}
	.st152{fill:#D6D7DA;}
	.st153{fill:#D4D3D8;}
	.st154{fill:#DBDEDE;}
	.st155{fill:#D3D1DA;}
	.st156{fill:#DEDDDD;}
	.st157{fill:#DAD9DA;}
	.st158{fill:#D0DBD7;}
	.st159{fill:#D6DADB;}
	.st160{fill:#D7D8D8;}
	.st161{fill:#DBDADF;}
	.st162{fill:#D4D4D6;}
	.st163{fill:#DAD9D9;}
	.st164{fill:#D9D9DB;}
	.st165{fill:#DAD9E0;}
	.st166{fill:#D1D9D6;}
	.st167{fill:#DCDBDD;}
	.st168{fill:#D8D8DB;}
	.st169{fill:#C9DBD5;}
	.st170{fill:#D4D5D5;}
	.st171{fill:#D2D1D7;}
	.st172{fill:#D5D6DA;}
	.st173{fill:#CFD8D9;}
	.st174{fill:#E0E0E1;}
	.st175{fill:#DFDEDD;}
	.st176{fill:#D0D9D4;}
	.st177{fill:#BBDDCB;}
	.st178{fill:#D4D4D8;}
	.st179{fill:#DADADC;}
	.st180{fill:#D4D9D9;}
	.st181{fill:#D7D7DB;}
	.st182{fill:#CFCDD3;}
	.st183{fill:#CEDCD6;}
	.st184{fill:#DBDBDE;}
	.st185{fill:#CECED9;}
	.st186{fill:#E1E2E2;}
	.st187{fill:#D5D7D6;}
	.st188{fill:#D2D7D5;}
	.st189{fill:#DEDFE0;}
	.st190{fill:#CFDCD6;}
	.st191{fill:#D2D3D9;}
	.st192{fill:#D9D8DD;}
	.st193{fill:#DADBDA;}
	.st194{fill:#D4E1DD;}
	.st195{fill:#DFDEDF;}
	.st196{fill:#D9DFDD;}
	.st197{fill:#D9D9DD;}
	.st198{fill:#D8D7D9;}
	.st199{fill:#D5D8D6;}
	.st200{fill:#D0D9D9;}
	.st201{fill:#D7D9D8;}
	.st202{fill:#DDDDDC;}
	.st203{fill:#D3D5DC;}
	.st204{fill:#DCDCDB;}
	.st205{fill:#DCDCDD;}
	.st206{fill:#DBDDDE;}
	.st207{fill:#D1D0D5;}
	.st208{fill:#C7DAD0;}
	.st209{fill:#D1D5D4;}
	.st210{fill:#D3D3D3;}
	.st211{fill:#D5D6D7;}
	.st212{fill:#CFD9D9;}
	.st213{fill:#CBCCD6;}
	.st214{fill:#DBDBDD;}
	.st215{fill:#D3D2D7;}
	.st216{fill:#D2D2D5;}
	.st217{fill:#DFE0DF;}
	.st218{fill:#DEDDE1;}
	.st219{fill:#D1D1DB;}
	.st220{fill:#D9DADB;}
	.st221{fill:#D2DADB;}
	.st222{fill:#D5D7D7;}
	.st223{fill:#D2D2D7;}
	.st224{fill:#DADBDC;}
	.st225{fill:#CECFDE;}
	.st226{fill:#CBCCDB;}
	.st227{fill:#DBDBDF;}
	.st228{fill:#D1CDD4;}
	.st229{fill:#DFDEE4;}
	.st230{fill:#D7D7D9;}
	.st231{fill:#D1DEDF;}
	.st232{fill:#D6D5D7;}
	.st233{fill:#D3D4D8;}
	.st234{fill:#CCCDD6;}
	.st235{fill:#DFDFE4;}
	.st236{fill:#DEDFE3;}
	.st237{fill:#DFDFE2;}
	.st238{fill:#D5DAD8;}
	.st239{fill:#C9D8D0;}
	.st240{fill:#DCDCE0;}
	.st241{fill:#E0E1E1;}
	.st242{fill:#D4D4D9;}
	.st243{fill:#DADDDD;}
	.st244{fill:#D5D8D7;}
	.st245{fill:#D5D4D8;}
	.st246{fill:#E0DFE1;}
	.st247{fill:#DADCDB;}
	.st248{fill:#DEDFE2;}
	.st249{fill:#DCDDDF;}
	.st250{fill:#D6D7D8;}
	.st251{fill:#D7D8D7;}
	.st252{fill:#E0E0E3;}
	.st253{fill:#D1D0DE;}
	.st254{fill:#E0DFE0;}
	.st255{fill:#D5D7D9;}
	.st256{fill:#D8D8D6;}
	.st257{fill:#D3D2DC;}
	.st258{fill:#E1E1E3;}
	.st259{fill:#D1D3D9;}
	.st260{fill:#D4D3DA;}
	.st261{fill:#D1D0DC;}
	.st262{fill:#D9D7E1;}
	.st263{fill:#D8DAD9;}
	.st264{fill:#DFDEE1;}
	.st265{fill:#DBE1E1;}
	.st266{fill:#E2E3E3;}
	.st267{fill:#D0CFD7;}
	.st268{fill:#DCDEDF;}
	.st269{fill:#DEE2E1;}
	.st270{fill:#DADAD8;}
	.st271{clip-path:url(#SVGID_6_);}
	.st272{opacity:0.7;fill:#3D3D3D;}
	.st273{display:none;}
	.st274{display:inline;}
	.st275{display:inline;opacity:0.9;fill:#77C150;}
	.st276{display:inline;opacity:0.9;fill:#487530;}
	.st277{fill:none;stroke:#3D3D3D;stroke-miterlimit:10;}
	.st278{fill:#2E2E2E;}
	.st279{fill:#3D3D3D;}
	.st280{fill:#FFFFFF;}
	.st281{fill:#A5CA39;}
	.st282{fill:#FCFCFC;}
	.st283{fill:none;stroke:#3D3D3D;stroke-width:2.2677;stroke-miterlimit:10;}
	.st284{clip-path:url(#SVGID_12_);}
	.st285{fill:#6F0E16;}
	.st286{fill:#0197CC;}
	.st287{display:none;fill:#00CADE;}
	.st288{opacity:0.8;fill:#E6E7E8;}
	.st289{fill:#FFFFFF;stroke:#231F20;stroke-width:0.2835;stroke-miterlimit:10;}
	.st290{fill:none;stroke:#ED1C24;stroke-miterlimit:10;}
</style>
<g>
	<g>
		<ellipse transform="matrix(0.866 0.5 -0.5 0.866 2.7903 -8.8646)" class="st281" cx="17.9" cy="0.8" rx="0.8" ry="0.8"/>
		<rect x="15.6" y="0.4" transform="matrix(0.866 0.5 -0.5 0.866 3.9346 -7.7203)" class="st281" width="1.6" height="6.3"/>
	</g>
	<g>
		<ellipse transform="matrix(0.866 -0.5 0.5 0.866 -0.283 0.4928)" class="st281" cx="0.8" cy="0.8" rx="0.8" ry="0.8"/>
		<rect x="1.6" y="0.4" transform="matrix(0.866 -0.5 0.5 0.866 -1.4273 1.6372)" class="st281" width="1.6" height="6.3"/>
	</g>
	<path class="st281" d="M16,5.4H2.7C1.2,5.4,0,6.8,0,8.4V37c0,1.7,1.2,3,2.7,3h13.2c1.5,0,2.8-1.4,2.8-3V8.4
		C18.7,6.8,17.5,5.4,16,5.4z M17.1,35.4H1.5c0,0,0-27,0-27c0,0,15.6,0,15.6,0V35.4z"/>
	<g>
		<ellipse class="st282" cx="9.4" cy="37.7" rx="0.8" ry="0.8"/>
		<ellipse class="st282" cx="12.5" cy="37.7" rx="0.8" ry="0.8"/>
		<ellipse class="st282" cx="6.2" cy="37.7" rx="0.8" ry="0.8"/>
	</g>
	<g>
		<g>
			<g>
				<g>
					<g>
						<path class="st281" d="M38,5.6v12.6h-3.1v-1.3c-1,1.1-2.3,1.6-3.9,1.6c-1.7,0-3.1-0.6-4.3-1.9C25.5,15.4,25,13.8,25,12
							c0-1.9,0.6-3.4,1.8-4.7C27.9,6,29.3,5.4,31,5.4c1.6,0,2.8,0.5,3.9,1.6V5.6H38z M34.7,12c0-1-0.3-1.9-0.9-2.6
							c-0.6-0.7-1.4-1.1-2.3-1.1c-0.9,0-1.7,0.3-2.3,1c-0.6,0.7-0.9,1.6-0.9,2.6c0,1,0.3,1.8,0.9,2.5c0.6,0.7,1.4,1,2.3,1
							c0.9,0,1.7-0.3,2.3-1C34.4,13.8,34.7,13,34.7,12z"/>
					</g>
					<g>
						<path class="st281" d="M52.5,11v7.2h-3.3V11c0-1.7-0.8-2.5-2.4-2.5c-0.7,0-1.3,0.2-1.8,0.7c-0.5,0.5-0.7,1.1-0.7,1.8v7.2h-3.3
							V5.6h3.1V7c0.9-1,2-1.6,3.3-1.6c1.5,0,2.7,0.5,3.6,1.6C52.1,8,52.5,9.3,52.5,11z"/>
					</g>
				</g>
				<g>
					<g>
						<path class="st281" d="M67,0v18.3h-3.1v-1.4c-1,1.1-2.3,1.6-3.9,1.6c-1.7,0-3.1-0.6-4.3-1.9C54.6,15.4,54,13.8,54,12
							c0-1.9,0.6-3.4,1.8-4.7C57,6,58.4,5.4,60.1,5.4c1.5,0,2.7,0.5,3.7,1.5V0H67z M63.8,12c0-1-0.3-1.8-0.9-2.5
							c-0.6-0.7-1.4-1.1-2.3-1.1c-0.9,0-1.7,0.3-2.3,1c-0.6,0.7-0.9,1.5-0.9,2.6c0,1,0.3,1.8,0.9,2.5c0.6,0.7,1.4,1,2.3,1
							c0.9,0,1.7-0.3,2.3-1C63.5,13.8,63.8,13,63.8,12z"/>
					</g>
					<g>
						<path class="st281" d="M81.5,11v0.6h-3.2V11c0-1.7-0.8-2.5-2.4-2.5c-0.7,0-1.3,0.2-1.8,0.7c-0.5,0.5-0.7,1.1-0.7,1.8v7.3h-3.2
							V5.6h3.1v1.2c0.9-1,2-1.5,3.3-1.5c1.5,0,2.7,0.5,3.6,1.5C81,7.9,81.5,9.3,81.5,11z"/>
					</g>
					<g>
						<path class="st281" d="M89.3,5.4c1.8,0,3.3,0.6,4.5,1.9c1.2,1.3,1.9,2.8,1.9,4.7c0,1.9-0.6,3.4-1.9,4.7
							c-1.2,1.3-2.7,1.9-4.5,1.9s-3.2-0.6-4.5-1.9C83.6,15.4,83,13.9,83,12c0-1.9,0.6-3.4,1.8-4.7C86.1,6,87.5,5.4,89.3,5.4z
							 M89.3,15.6c0.9,0,1.6-0.3,2.2-1c0.6-0.7,0.9-1.5,0.9-2.6c0-1.1-0.3-2-0.9-2.6c-0.6-0.7-1.3-1-2.2-1c-0.9,0-1.6,0.3-2.2,1
							c-0.6,0.7-0.9,1.6-0.9,2.6c0,1,0.3,1.9,0.9,2.6C87.7,15.3,88.4,15.6,89.3,15.6z"/>
					</g>
				</g>
			</g>
			<g>
				<path class="st281" d="M100.3,1.5v3.1h-3.1V1.5H100.3z M100.3,5.6v12.6h-3.1V5.6H100.3z"/>
			</g>
		</g>
		<g>
			<path class="st281" d="M114.8,0v18.3h-3.1v-1.4c-1,1.1-2.3,1.6-3.9,1.6c-1.7,0-3.1-0.6-4.3-1.9c-1.2-1.3-1.8-2.8-1.8-4.7
				c0-1.9,0.6-3.4,1.8-4.7c1.2-1.3,2.6-1.9,4.3-1.9c1.5,0,2.7,0.5,3.7,1.5V0H114.8z M111.5,12c0-1-0.3-1.8-0.9-2.5
				c-0.6-0.7-1.4-1.1-2.3-1.1c-0.9,0-1.7,0.3-2.3,1c-0.6,0.7-0.9,1.5-0.9,2.6c0,1,0.3,1.8,0.9,2.5c0.6,0.7,1.4,1,2.3,1
				c0.9,0,1.7-0.3,2.3-1C111.2,13.8,111.5,13,111.5,12z"/>
		</g>
	</g>
	<g>
		<g>
			<path class="st281" d="M76.1,21.5v18.3H73v-1.4c-1,1.1-2.3,1.6-3.9,1.6c-1.7,0-3.1-0.6-4.3-1.9c-1.2-1.3-1.8-2.8-1.8-4.7
				c0-1.9,0.6-3.4,1.8-4.7c1.2-1.3,2.6-1.9,4.3-1.9c1.5,0,2.7,0.5,3.7,1.5v-6.9H76.1z M72.9,33.4c0-1-0.3-1.8-0.9-2.5
				c-0.6-0.7-1.4-1.1-2.3-1.1c-0.9,0-1.7,0.3-2.3,1c-0.6,0.7-0.9,1.5-0.9,2.6c0,1,0.3,1.8,0.9,2.5c0.6,0.7,1.4,1,2.3,1
				c0.9,0,1.7-0.3,2.3-1C72.6,35.3,72.9,34.4,72.9,33.4z"/>
		</g>
		<g>
			<path class="st281" d="M36.1,35.8c0,1.2-0.5,2.3-1.5,3c-1,0.8-2.3,1.2-3.8,1.2c-1.6,0-2.9-0.4-3.9-1.2c-1-0.8-1.7-1.9-1.9-3.2
				h3.2c0.4,1,1.3,1.5,2.6,1.5c1.5,0,2.2-0.4,2.2-1.1c0-0.4-0.2-0.6-0.5-0.8c-0.3-0.2-1-0.4-2.1-0.5c-1.5-0.2-2.6-0.6-3.4-1
				c-1.2-0.6-1.7-1.6-1.7-2.8c0-1.1,0.4-2,1.3-2.8c1-0.8,2.3-1.3,3.9-1.3c1.4,0,2.6,0.4,3.5,1.1c1,0.7,1.5,1.7,1.7,2.9h-3.2
				c-0.2-0.7-0.9-1-2-1c-0.7,0-1.2,0.1-1.6,0.3c-0.3,0.2-0.5,0.4-0.5,0.7c0,0.3,0.2,0.5,0.6,0.7c0.3,0.1,0.9,0.3,1.8,0.4
				c1.7,0.3,3,0.7,3.7,1.1C35.6,33.6,36.1,34.5,36.1,35.8z"/>
		</g>
		<g>
			<path class="st281" d="M48.6,33.4v1c0,1.6-0.5,3-1.5,4c-1,1-2.2,1.6-3.9,1.6c-1.7,0-3-0.5-4-1.6c-1-1-1.5-2.4-1.5-4V22.9h3.1v4.2
				h7.8v3h-7.8v4.5c0,0.6,0.2,1.2,0.6,1.6c0.4,0.5,1,0.7,1.8,0.7c0.8,0,1.3-0.2,1.7-0.7c0.4-0.4,0.6-1,0.6-1.6v-1.2H48.6z"/>
		</g>
		<g>
			<path class="st281" d="M50.1,34.3v-7.2h3.3v7.2c0,1.7,0.8,2.5,2.4,2.5c0.7,0,1.3-0.2,1.8-0.7c0.5-0.5,0.7-1.1,0.7-1.8v-7.2h3.3
				v12.6h-3.1v-1.3c-0.9,1-2,1.6-3.3,1.6c-1.5,0-2.7-0.5-3.6-1.6C50.6,37.4,50.1,36,50.1,34.3z"/>
		</g>
		<g>
			<path class="st281" d="M82.4,22.9V26h-3.1v-3.1H82.4z M82.4,27.1v12.6h-3.1V27.1H82.4z"/>
		</g>
		<g>
			<path class="st281" d="M90.2,26.8c1.8,0,3.3,0.6,4.5,1.9c1.2,1.3,1.9,2.8,1.9,4.7c0,1.9-0.6,3.4-1.9,4.7C93.5,39.4,92,40,90.2,40
				c-1.8,0-3.2-0.6-4.5-1.9c-1.2-1.3-1.8-2.8-1.8-4.7c0-1.9,0.6-3.4,1.8-4.7C87,27.5,88.5,26.8,90.2,26.8z M90.2,37
				c0.9,0,1.6-0.3,2.2-1c0.6-0.7,0.9-1.5,0.9-2.6c0-1.1-0.3-2-0.9-2.6c-0.6-0.7-1.3-1-2.2-1c-0.9,0-1.6,0.3-2.2,1
				c-0.6,0.7-0.9,1.6-0.9,2.6c0,1,0.3,1.9,0.9,2.6C88.6,36.7,89.4,37,90.2,37z"/>
		</g>
	</g>
</g>
</svg>
